<svg xmlns="http://www.w3.org/2000/svg" viewBox="0 0 2048 2048" fill="none">
  <path d="M1713.39 887.633C1757.04 753.319 1737.04 606.173 1659.17 491.076C1541.63 317.341 1326.44 236.896 1121.91 285.565C1037.01 178.452 1909.12 119.562 770.966 119.999C595.414 120.437 429.762 202.693 323.523 340.255C177.478 484.474 130.655 697.109 201.217 886.508C84.3289 959.851 15.2373 1091.66 15.675 1232.39C16.5503 1431.23 156.178 1602.96 349.828 1651.18C305.614 1785.94 325.622 1933.53 403.935 2048.62C521.481 2222.36 736.667 2302.8 941.205 2254.13C1026.1 2361.25 1153.99 2423.57 1290.14 2423.57C1490.8 2423.13 1671.61 2289.69 1737.48 2094.48C1880.09 2034.3 1985.9 1904.28 2015.22 1750.73C2063.35 1555.52 1996.25 1350.54 1841.51 1219.4C1882.29 1096.98 1871.73 962.673 1813.39 847.633ZM1290.14 2266.24C1196.69 2266.68 1108.54 2224.8 1049.21 2152.78L1066.53 2142.77L1463.35 1913.73C1486.51 1900.61 1500.98 1876.03 1500.54 1849.65V1131.76L1669.89 1229.38C1672.58 1230.7 1674.39 1233.33 1674.83 1236.41V1859.67C1674.39 2084.04 1494.46 2265.8 1270.09 2266.24H1290.14ZM421.467 1874.98C374.644 1793.62 358.186 1697.32 378.633 1605.23L395.951 1615.24L792.77 1844.28C815.49 1858.28 843.49 1858.28 866.648 1844.28L1363.44 1557.22V1752.46C1363.88 1755.98 1362.07 1759.5 1358.98 1761.31L955.403 1994.74C761.753 2106.58 513.555 2037.05 401.413 1854.93L421.467 1874.98ZM348.953 675.846C395.776 594.049 471.838 532.478 561.686 502.718V526.858V1001.73C561.248 1028.11 575.713 1052.69 599.309 1065.37L1096.1 1352.43L926.752 1450.04C923.619 1452.3 919.611 1452.74 916.04 1451.36L512.462 1217.93C319.25 1105.64 250.158 858.334 368.999 665.838L348.953 675.846ZM1770.74 1016.82L1273.95 729.759L1443.3 632.147C1446.43 629.896 1450.44 629.458 1454.01 630.771L1857.59 864.196C2050.8 976.483 2119.9 1223.79 2001.05 1416.29C1954.23 1498.08 1878.17 1559.65 1788.32 1589.41V1080.63C1788.76 1054.26 1774.29 1029.68 1750.69 1016.82H1770.74ZM1939.65 918.771L1922.33 908.758L1525.51 679.715C1502.36 665.715 1474.36 665.715 1451.2 679.715L954.415 966.771V771.534C954.415 767.964 956.227 764.394 959.359 762.581L1362.94 529.153C1555.71 417.303 1804.34 486.4 1916.93 679.334C1964.19 760.252 1983.75 854.739 1959.71 947.268L1939.65 918.771ZM869.339 1418.95L699.992 1321.34C696.859 1319.52 694.61 1316.39 694.172 1312.82V689.567C694.172 465.636 873.22 284.319 1097.59 283.88C1190.6 283.443 1279.63 325.321 1343.89 396.463L1326.57 406.476L929.752 635.515C906.595 648.635 892.131 673.218 892.569 699.59L869.339 1418.95ZM954.415 1240.2L1118.47 1145.76L1282.53 1240.2V1429.08L1118.47 1523.52L954.415 1429.08V1240.2Z" fill="currentColor"/>
</svg>
